<svg width="246" height="79" viewBox="0 0 246 79" fill="none" xmlns="http://www.w3.org/2000/svg">
<g filter="url(#filter0_dd_3_4)">
<rect x="4" width="238" height="71" rx="10" fill="#A6A6A6"/>
</g>
<g filter="url(#filter1_dd_3_4)">
<rect x="5" y="1" width="236" height="69" rx="9" fill="black"/>
</g>
<path d="M40.3184 13.0352C44.4751 13.037 48.5489 14.1977 52.082 16.3877C55.6153 18.5779 58.4686 21.7103 60.3193 25.4326C62.1701 29.1549 62.9459 33.32 62.5596 37.459C62.1732 41.5979 60.6394 45.5468 58.1318 48.8623C55.6242 52.1777 52.2417 54.7281 48.3643 56.2266C44.4868 57.725 40.2681 58.1122 36.1826 57.3447C32.0971 56.5772 28.3066 54.6854 25.2373 51.8818C22.168 49.0782 19.941 45.4742 18.8076 41.4746L27.3711 45.0146C27.6783 46.5554 28.5478 47.9275 29.8105 48.8623C31.0733 49.7971 32.6388 50.2282 34.2021 50.0723C35.7653 49.9163 37.2145 49.1842 38.2676 48.0186C39.3206 46.8528 39.9026 45.3366 39.8994 43.7656V43.4688L47.457 38.0449H47.6484C49.3144 38.0449 50.9435 37.551 52.3291 36.626C53.7146 35.701 54.7947 34.3862 55.4336 32.8477C56.0724 31.3092 56.2417 29.6157 55.9189 27.9814C55.5961 26.3473 54.7959 24.845 53.6201 23.665C52.4442 22.4851 50.9447 21.6792 49.3115 21.3506C47.6784 21.0221 45.9841 21.1849 44.4434 21.8184C42.9027 22.4519 41.584 23.528 40.6543 24.9102C39.7245 26.2926 39.2245 27.92 39.2188 29.5859V29.6963L33.8936 37.417H33.5391C32.2669 37.411 31.0234 37.7943 29.9756 38.5156L18 33.5625C18.4486 27.9633 20.9891 22.7382 25.1162 18.9277C29.2434 15.1173 34.6543 13.0011 40.2715 13L40.3184 13.0352ZM31.8594 39.2598C32.6119 38.9756 33.4247 38.8877 34.2207 39.0039C35.0164 39.1201 35.7694 39.4366 36.4092 39.9238C37.0491 40.4113 37.5554 41.0535 37.8789 41.79C38.2023 42.5264 38.3327 43.333 38.2588 44.1338C38.1848 44.9348 37.9081 45.7044 37.4551 46.3691C37.0021 47.0338 36.3873 47.5727 35.6689 47.9346C34.9507 48.2963 34.1522 48.4691 33.3486 48.4375C32.5448 48.4058 31.762 48.1702 31.0742 47.7529C30.2875 47.2776 29.6571 46.5822 29.2607 45.7529L32.0049 46.916V46.875C32.4286 47.0517 32.8828 47.1434 33.3418 47.1445C33.8009 47.1457 34.2561 47.0565 34.6807 46.8818C35.1051 46.7072 35.4911 46.4507 35.8164 46.127C36.1417 45.8032 36.4004 45.4187 36.5771 44.9951C36.7539 44.5714 36.8455 44.1163 36.8467 43.6572C36.8478 43.1984 36.7585 42.7437 36.584 42.3193C36.4093 41.8948 36.152 41.5081 35.8281 41.1826C35.5044 40.8574 35.1197 40.5995 34.6963 40.4229L31.8594 39.2598ZM45.2666 24.5078C46.4866 23.9309 47.8732 23.8117 49.1738 24.1719C50.4744 24.532 51.602 25.3475 52.3516 26.4697C52.971 27.3929 53.3016 28.4801 53.2998 29.5918C53.3006 30.9413 52.8164 32.2462 51.9355 33.2686C51.0545 34.2909 49.8349 34.9626 48.5 35.1611C47.1652 35.3597 45.8035 35.0722 44.6631 34.3506C43.5226 33.6289 42.6791 32.521 42.2871 31.2295C41.8952 29.9382 41.9806 28.5492 42.5273 27.3154C43.0742 26.0815 44.0465 25.0848 45.2666 24.5078ZM47.9697 25.377C47.2424 25.3396 46.5174 25.4913 45.8662 25.8174C45.2151 26.1435 44.6597 26.6327 44.2539 27.2373L44.2129 27.249C43.7526 27.9373 43.5061 28.7462 43.5039 29.5742H43.4746C43.4762 30.1304 43.5853 30.6811 43.7949 31.1963C44.2364 32.2374 45.0725 33.0606 46.1201 33.4863C46.6344 33.698 47.186 33.8052 47.7422 33.8008C48.4704 33.8027 49.1867 33.616 49.8213 33.2588C50.4559 32.9015 50.9873 32.3854 51.3633 31.7617C51.7391 31.1382 51.9471 30.428 51.9668 29.7002C51.9865 28.9723 51.8172 28.2514 51.4756 27.6084C51.1338 26.9653 50.631 26.4213 50.0166 26.0303C49.4022 25.6393 48.697 25.4143 47.9697 25.377Z" fill="white"/>
<path d="M86.9297 30.0056C89.7319 29.9246 92.4891 30.723 94.8145 32.2888H94.8721L92.7432 35.9831C91.0575 34.8365 89.0736 34.207 87.0352 34.1726C84.8498 34.1726 83.4961 35.07 83.4961 36.7009C83.4963 38.3316 85.2171 38.9514 87.916 39.8728L89.4736 40.4109C93.3143 41.7727 95.5244 43.3628 95.5244 46.8855C95.5244 51.6966 91.7322 54.3962 86.3096 54.3962C83.3979 54.411 80.5329 53.6624 78 52.2263L79.5332 48.1492C81.5451 49.2149 83.7802 49.7904 86.0566 49.8288C88.927 49.8288 90.3135 48.7773 90.3135 47.2117C90.3134 45.646 88.527 44.961 85.5996 43.9988L84.874 43.7624C81.0416 42.4904 78.3507 40.8104 78.3506 36.9128C78.3506 32.5257 81.8984 30.0056 86.9297 30.0056ZM118.381 30.3728V34.6296H111.222V54.0046H106.271V34.6296H99.1123V30.3728H118.381ZM184.701 47.3992L192.375 30.3562H197.146V54.0046H192.416V39.5222L185.949 53.3191H183.16L176.783 39.6365V54.0046H172.038V30.3562H176.768L184.701 47.3992ZM139.803 34.6052L128.803 34.6296V39.946H138.27V44.2029H128.818V49.74H139.803V53.9958H123.869V30.3484H139.803V34.6052ZM157.922 30.3484L167.031 53.9958H161.673L160.042 49.4138H150.819L149.262 53.9958H144.108L152.964 30.3484H157.922ZM152.182 45.4744H158.705L155.443 36.0242L152.182 45.4744ZM203.44 30.0876C203.873 30.0732 204.304 30.1504 204.704 30.3152C205.11 30.4704 205.478 30.7131 205.781 31.0251C206.09 31.3302 206.332 31.6969 206.49 32.1013C206.645 32.5043 206.72 32.9335 206.711 33.365C206.708 34.0136 206.512 34.6476 206.147 35.1843C205.879 35.5869 205.525 35.9248 205.11 36.1736C204.695 36.4225 204.23 36.576 203.748 36.6228C203.266 36.6696 202.78 36.6083 202.325 36.4441C201.87 36.2798 201.457 36.0171 201.116 35.6736C200.772 35.3317 200.509 34.9164 200.345 34.4597C200.181 34.0031 200.121 33.5157 200.169 33.033C200.217 32.5501 200.374 32.0838 200.625 31.6687C200.876 31.2538 201.217 30.9001 201.622 30.6335C202.161 30.2752 202.794 30.0854 203.44 30.0876ZM203.44 30.6169C203.078 30.6056 202.717 30.6695 202.381 30.8044C202.044 30.9395 201.738 31.143 201.482 31.4011C201.227 31.6592 201.028 31.9671 200.896 32.3054C200.764 32.6424 200.703 33.0032 200.717 33.365C200.725 33.9029 200.889 34.4275 201.189 34.8738C201.495 35.3153 201.923 35.6588 202.421 35.8611C202.917 36.0638 203.462 36.1146 203.987 36.0076C204.514 35.8964 204.996 35.6321 205.373 35.2488C205.753 34.8712 206.012 34.3887 206.115 33.863C206.213 33.3336 206.156 32.7869 205.952 32.2888C205.745 31.7939 205.396 31.3713 204.949 31.074C204.502 30.7766 203.977 30.6171 203.44 30.6169ZM203.489 31.6853C204.329 31.6853 204.615 32.1427 204.615 32.6238L204.609 32.7615C204.592 32.9067 204.541 33.0466 204.46 33.1697C204.357 33.3286 204.21 33.4532 204.036 33.5281L204.794 34.947H204.15L203.514 33.6912H202.854V34.947H202.332V31.6853H203.489ZM202.878 32.1833V33.2019H203.44V33.1941C203.517 33.2059 203.595 33.2 203.669 33.1775C203.742 33.1589 203.809 33.1228 203.864 33.072C203.919 33.0215 203.964 32.9602 203.995 32.8923C204.027 32.8234 204.043 32.7485 204.044 32.6726C204.044 32.379 203.889 32.1833 203.448 32.1833H202.878Z" fill="white"/>
<path d="M86.862 23H84.832L84.244 21.236H80.702L80.1 23H78.07L81.696 13.032H83.222L86.862 23ZM83.726 19.598L82.508 15.972L81.248 19.598H83.726ZM95.0197 13.032L91.7157 23H90.2597L86.9697 13.032H88.9857L90.9877 19.528L92.9897 13.032H95.0197ZM103.925 23H101.895L101.307 21.236H97.7645L97.1625 23H95.1325L98.7585 13.032H100.285L103.925 23ZM100.789 19.598L99.5705 15.972L98.3105 19.598H100.789ZM107.098 23H105.152V13.032H107.098V23ZM115.886 23H109.418V13.032H111.364V21.264H115.886V23ZM125.171 23H123.141L122.553 21.236H119.011L118.409 23H116.379L120.005 13.032H121.531L125.171 23ZM122.035 19.598L120.817 15.972L119.557 19.598H122.035ZM133.622 20.13C133.622 21.0353 133.342 21.74 132.782 22.244C132.222 22.748 131.485 23 130.57 23H126.398V13.032H130.402C131.364 13.032 132.115 13.284 132.656 13.788C133.207 14.292 133.482 14.9733 133.482 15.832C133.482 16.336 133.342 16.7887 133.062 17.19C132.829 17.5073 132.558 17.7407 132.25 17.89C133.165 18.3193 133.622 19.066 133.622 20.13ZM131.536 15.916C131.536 15.5707 131.424 15.2953 131.2 15.09C130.976 14.8753 130.659 14.768 130.248 14.768H128.344V17.064H130.248C130.659 17.064 130.976 16.9613 131.2 16.756C131.424 16.5413 131.536 16.2613 131.536 15.916ZM131.676 20.032C131.676 19.6773 131.564 19.388 131.34 19.164C131.116 18.9307 130.794 18.814 130.374 18.814H128.344V21.264H130.374C130.794 21.264 131.116 21.1473 131.34 20.914C131.564 20.6807 131.676 20.3867 131.676 20.032ZM142.081 23H135.613V13.032H137.559V21.264H142.081V23ZM150.232 23H143.666V13.032H150.232V14.768H145.612V17.106H149.546V18.842H145.612V21.264H150.232V23ZM162.424 18.016C162.424 19.0987 162.382 19.85 162.298 20.27C162.177 20.9607 161.888 21.5347 161.43 21.992C160.702 22.72 159.806 23.084 158.742 23.084C157.669 23.084 156.768 22.72 156.04 21.992C155.592 21.544 155.303 20.97 155.172 20.27C155.098 19.8593 155.06 19.108 155.06 18.016C155.06 16.924 155.098 16.1727 155.172 15.762C155.303 15.062 155.592 14.488 156.04 14.04C156.768 13.312 157.669 12.948 158.742 12.948C159.806 12.948 160.702 13.312 161.43 14.04C161.888 14.4973 162.177 15.0713 162.298 15.762C162.382 16.182 162.424 16.9333 162.424 18.016ZM160.478 18.016C160.478 17.2507 160.469 16.7653 160.45 16.56C160.394 15.944 160.24 15.496 159.988 15.216C159.671 14.8613 159.256 14.684 158.742 14.684C158.22 14.684 157.8 14.8613 157.482 15.216C157.24 15.496 157.09 15.944 157.034 16.56C157.016 16.728 157.006 17.2133 157.006 18.016C157.006 18.8187 157.016 19.304 157.034 19.472C157.09 20.088 157.24 20.536 157.482 20.816C157.8 21.1707 158.22 21.348 158.742 21.348C159.321 21.348 159.774 21.124 160.1 20.676C160.352 20.3307 160.478 19.444 160.478 18.016ZM172.036 23H170.3L166.352 16.882V23H164.406V13.032H166.142L170.09 19.136V13.032H172.036V23Z" fill="white"/>
<defs>
<filter id="filter0_dd_3_4" x="0" y="0" width="246" height="79" filterUnits="userSpaceOnUse" color-interpolation-filters="sRGB">
<feFlood flood-opacity="0" result="BackgroundImageFix"/>
<feColorMatrix in="SourceAlpha" type="matrix" values="0 0 0 0 0 0 0 0 0 0 0 0 0 0 0 0 0 0 127 0" result="hardAlpha"/>
<feOffset dy="4"/>
<feGaussianBlur stdDeviation="2"/>
<feComposite in2="hardAlpha" operator="out"/>
<feColorMatrix type="matrix" values="0 0 0 0 0 0 0 0 0 0 0 0 0 0 0 0 0 0 0.25 0"/>
<feBlend mode="normal" in2="BackgroundImageFix" result="effect1_dropShadow_3_4"/>
<feColorMatrix in="SourceAlpha" type="matrix" values="0 0 0 0 0 0 0 0 0 0 0 0 0 0 0 0 0 0 127 0" result="hardAlpha"/>
<feOffset dy="4"/>
<feGaussianBlur stdDeviation="2"/>
<feComposite in2="hardAlpha" operator="out"/>
<feColorMatrix type="matrix" values="0 0 0 0 0 0 0 0 0 0 0 0 0 0 0 0 0 0 0.25 0"/>
<feBlend mode="normal" in2="effect1_dropShadow_3_4" result="effect2_dropShadow_3_4"/>
<feBlend mode="normal" in="SourceGraphic" in2="effect2_dropShadow_3_4" result="shape"/>
</filter>
<filter id="filter1_dd_3_4" x="1" y="1" width="244" height="77" filterUnits="userSpaceOnUse" color-interpolation-filters="sRGB">
<feFlood flood-opacity="0" result="BackgroundImageFix"/>
<feColorMatrix in="SourceAlpha" type="matrix" values="0 0 0 0 0 0 0 0 0 0 0 0 0 0 0 0 0 0 127 0" result="hardAlpha"/>
<feOffset dy="4"/>
<feGaussianBlur stdDeviation="2"/>
<feComposite in2="hardAlpha" operator="out"/>
<feColorMatrix type="matrix" values="0 0 0 0 0 0 0 0 0 0 0 0 0 0 0 0 0 0 0.25 0"/>
<feBlend mode="normal" in2="BackgroundImageFix" result="effect1_dropShadow_3_4"/>
<feColorMatrix in="SourceAlpha" type="matrix" values="0 0 0 0 0 0 0 0 0 0 0 0 0 0 0 0 0 0 127 0" result="hardAlpha"/>
<feOffset dy="4"/>
<feGaussianBlur stdDeviation="2"/>
<feComposite in2="hardAlpha" operator="out"/>
<feColorMatrix type="matrix" values="0 0 0 0 0 0 0 0 0 0 0 0 0 0 0 0 0 0 0.25 0"/>
<feBlend mode="normal" in2="effect1_dropShadow_3_4" result="effect2_dropShadow_3_4"/>
<feBlend mode="normal" in="SourceGraphic" in2="effect2_dropShadow_3_4" result="shape"/>
</filter>
</defs>
</svg>
